<svg xmlns="http://www.w3.org/2000/svg" viewBox="0 0 32 32" fill="none">
  <rect width="32" height="32" rx="8" fill="url(#g)"/>
  <path d="M9 21V11h4.2c2.5 0 3.9 1.3 3.9 3.2 0 1.4-.8 2.4-2 2.8l2.6 4h-2.5l-2.3-3.7h-1.7V21H9zm2.2-5.4h1.9c1.2 0 1.9-.6 1.9-1.5s-.7-1.4-1.9-1.4h-1.9v2.9zM19.1 21v-2h2v-7h-2v-2h6.2c2.4 0 3.7 1.1 3.7 2.8 0 1.1-.7 1.8-1.6 2.1 1.2.3 2 1.1 2 2.4 0 1.8-1.4 3-3.9 3.1-.6 0-1.3.1-1.9.1l-4.5-.5zm4.1-5.5h1.7c.9 0 1.4-.4 1.4-1.1s-.5-1-1.4-1h-1.7v2.1zm0 3.6h1.9c1 0 1.6-.4 1.6-1.2 0-.7-.6-1.2-1.6-1.2h-1.9v2.4z" fill="#0A1628"/>
  <defs>
    <linearGradient id="g" x1="0" y1="0" x2="32" y2="32">
      <stop stop-color="#C9A961"/>
      <stop offset=".5" stop-color="#D4BC7E"/>
      <stop offset="1" stop-color="#10B981"/>
    </linearGradient>
  </defs>
</svg>
